<svg width="13" height="13" viewBox="0 0 13 13" fill="none" xmlns="http://www.w3.org/2000/svg">
<path d="M12 9.48556L12 3.51413C12 2.63405 12 2.19424 11.8287 1.85809C11.6781 1.56241 11.4379 1.32177 11.1422 1.17111C10.8064 1 10.3665 1 9.48818 1L3.5116 1C2.63326 1 2.19406 1 1.85825 1.17111C1.56257 1.32177 1.32193 1.56249 1.17127 1.85817C0.999999 2.19432 0.999999 2.63436 0.999999 3.51444L0.999999 9.48589C0.999999 10.366 1 10.806 1.17127 11.1422C1.32193 11.4378 1.56257 11.6781 1.85825 11.8287C2.19439 12 2.63419 12 3.51426 12L9.4856 12C10.3657 12 10.806 12 11.1422 11.8287C11.4379 11.6781 11.6781 11.4378 11.8287 11.1422C12 10.806 12 10.3656 12 9.48556Z" stroke="#949FAF" stroke-width="2" stroke-linecap="round" stroke-linejoin="round"/>
</svg>
