<svg width="16" height="17" viewBox="0 0 16 17" fill="none" xmlns="http://www.w3.org/2000/svg">
<path d="M14.6062 10.5801L14.6062 2.78008C14.6062 2.36004 14.6062 2.15017 14.5245 1.98973C14.4526 1.84861 14.3379 1.73365 14.1968 1.66175C14.0365 1.58008 13.8266 1.58008 13.4074 1.58008L5.60613 1.58008M11.6062 6.97993L11.6062 12.6799C11.6062 13.52 11.6062 13.9404 11.4427 14.2612C11.2989 14.5435 11.0696 14.7728 10.7874 14.9166C10.4665 15.0801 10.0461 15.0801 9.20605 15.0801L3.50605 15.0801C2.66597 15.0801 2.24616 15.0801 1.92529 14.9166C1.64305 14.7728 1.41334 14.5435 1.26953 14.2612C1.10604 13.9404 1.10604 13.5203 1.10604 12.6802L1.10604 6.98022C1.10604 6.14015 1.10604 5.72011 1.26953 5.39924C1.41334 5.117 1.64305 4.88722 1.92529 4.74341C2.24584 4.58008 2.66508 4.58008 3.50352 4.58008L9.20852 4.58008C10.047 4.58008 10.4668 4.58008 10.7874 4.74341C11.0696 4.88722 11.2989 5.11692 11.4427 5.39917C11.6062 5.72003 11.6062 6.13986 11.6062 6.97993Z" stroke="#949FAF" stroke-width="2" stroke-linecap="round" stroke-linejoin="round"/>
</svg>
